# xmcd
#
# Track frame offsets:
#	150
#	18848
#	34735
#	51508
#	69219
#	84260
#	98863
#	114419
#	130419
#	142550
#	155339
#	171064
#
# Disc length: 2477 seconds
# Revision: 0
# Processed by: cddbd v1.5.2PL0 Copyright (c) Steve Scherf et al.
# Submitted via: dBpowerAMP V12.0
#
DISCID=8c09ab0c
DTITLE=Trinity Seely - Old Poly Rope
DYEAR=2013
DGENRE=
TTITLE0=Old Poly Rope
TTITLE1=Just About As East
TTITLE2=Cowboys, Babies and Dreams
TTITLE3=Come On Fall
TTITLE4=Colts Became Horses
TTITLE5=A Cowboy Hat
TTITLE6=Heavenly Brand
TTITLE7=Kitchen Window Cowboy
TTITLE8=Cowgirl Spirit
TTITLE9=Neighbors
TTITLE10=Headfirst In The Wind
TTITLE11=Cricket Roll
EXTD=
EXTT0=
EXTT1=
EXTT2=
EXTT3=
EXTT4=
EXTT5=
EXTT6=
EXTT7=
EXTT8=
EXTT9=
EXTT10=
EXTT11=
PLAYORDER=
